<?xml version="1.0" encoding="UTF-8"?>
<!DOCTYPE svg PUBLIC "-//W3C//DTD SVG 1.1//EN" "http://www.w3.org/Graphics/SVG/1.1/DTD/svg11.dtd">
<svg xmlns="http://www.w3.org/2000/svg" version="1.1" width="462px" height="423px" style="shape-rendering:geometricPrecision; text-rendering:geometricPrecision; image-rendering:optimizeQuality; fill-rule:evenodd; clip-rule:evenodd" xmlns:xlink="http://www.w3.org/1999/xlink">
<g><path style="opacity:1" fill="#443d9c" d="M 76.5,-0.5 C 197.833,-0.5 319.167,-0.5 440.5,-0.5C 451.167,2.83333 458.167,9.83333 461.5,20.5C 461.5,147.5 461.5,274.5 461.5,401.5C 458.167,412.167 451.167,419.167 440.5,422.5C 319.167,422.5 197.833,422.5 76.5,422.5C 70.375,420.932 65.375,417.599 61.5,412.5C 60.5634,408.624 59.0634,404.957 57,401.5C 57.1574,381.142 56.3241,361.142 54.5,341.5C 53.0975,340.069 51.4308,338.902 49.5,338C 50,337.833 50.5,337.667 51,337.5C 56.9924,339.707 63.159,341.04 69.5,341.5C 70.5,341.5 71.5,341.5 72.5,341.5C 74.3052,343.197 76.6385,344.03 79.5,344C 87.4858,344.73 95.4858,345.23 103.5,345.5C 109.733,345.62 115.733,344.953 121.5,343.5C 123.5,343.5 125.5,343.5 127.5,343.5C 137.177,343.662 146.51,342.329 155.5,339.5C 246.865,320.576 324.698,277.576 389,210.5C 397.742,200.26 405.908,189.594 413.5,178.5C 406.858,177.336 400.192,177.169 393.5,178C 373.588,202.759 349.921,222.925 322.5,238.5C 320.088,238.331 317.921,238.997 316,240.5C 313.922,239.057 313.089,239.724 313.5,242.5C 310.71,243.463 308.043,244.797 305.5,246.5C 303.845,245.772 302.179,245.605 300.5,246C 301.167,246.667 301.833,247.333 302.5,248C 297.709,250.378 293.375,253.212 289.5,256.5C 275.202,264.049 260.202,270.049 244.5,274.5C 239.775,275.351 235.108,276.518 230.5,278C 225.811,278.291 221.144,278.291 216.5,278C 218.087,278.862 219.754,279.529 221.5,280C 221.167,280.333 220.833,280.667 220.5,281C 207.744,283.335 195.077,285.668 182.5,288C 166.139,288.391 149.806,287.891 133.5,286.5C 131.901,286.768 130.568,286.434 129.5,285.5C 121.945,282.313 114.278,279.313 106.5,276.5C 91.9582,268.96 81.6248,257.627 75.5,242.5C 173.863,196.486 271.863,149.652 369.5,102C 374.291,98.2577 376.124,93.4244 375,87.5C 369.158,70.9949 357.658,60.8282 340.5,57C 332.299,54.8523 323.966,53.6856 315.5,53.5C 296.822,51.864 278.155,53.0306 259.5,57C 258.058,57.3768 257.058,58.2101 256.5,59.5C 254.095,60.7682 251.428,61.4349 248.5,61.5C 236.294,64.0542 224.294,67.5542 212.5,72C 210.24,72.5494 208.574,73.716 207.5,75.5C 151.237,97.1492 101.57,128.816 58.5,170.5C 57.1669,145.842 56.5002,120.842 56.5,95.5C 56.5178,69.1442 56.8512,42.8108 57.5,16.5C 61.0345,7.62859 67.3678,1.96192 76.5,-0.5 Z"/></g>
<g><path style="opacity:1" fill="#fefefe" d="M 315.5,53.5 C 323.966,53.6856 332.299,54.8523 340.5,57C 357.658,60.8282 369.158,70.9949 375,87.5C 376.124,93.4244 374.291,98.2577 369.5,102C 271.863,149.652 173.863,196.486 75.5,242.5C 81.6248,257.627 91.9582,268.96 106.5,276.5C 113.375,281.242 121.042,284.242 129.5,285.5C 130.568,286.434 131.901,286.768 133.5,286.5C 171.542,292.788 208.542,288.788 244.5,274.5C 260.202,270.049 275.202,264.049 289.5,256.5C 300.988,251.259 311.988,245.259 322.5,238.5C 349.921,222.925 373.588,202.759 393.5,178C 400.192,177.169 406.858,177.336 413.5,178.5C 405.908,189.594 397.742,200.26 389,210.5C 324.698,277.576 246.865,320.576 155.5,339.5C 145.994,340.572 136.661,341.906 127.5,343.5C 125.5,343.5 123.5,343.5 121.5,343.5C 105.081,344.875 88.7477,344.208 72.5,341.5C 71.5,341.5 70.5,341.5 69.5,341.5C 49.5118,337.922 32.3451,328.922 18,314.5C 3.40067,294.643 0.0673344,272.977 8,249.5C 15.6488,227.86 26.6488,208.194 41,190.5C 47.0421,183.962 52.8755,177.295 58.5,170.5C 101.57,128.816 151.237,97.1492 207.5,75.5C 221.109,70.4087 234.776,65.7421 248.5,61.5C 251.428,61.4349 254.095,60.7682 256.5,59.5C 275.916,55.1149 295.582,53.1149 315.5,53.5 Z"/></g>
<g><path style="opacity:1" fill="#5f57a1" d="M 315.5,53.5 C 295.582,53.1149 275.916,55.1149 256.5,59.5C 257.058,58.2101 258.058,57.3768 259.5,57C 278.155,53.0306 296.822,51.864 315.5,53.5 Z"/></g>
<g><path style="opacity:1" fill="#595199" d="M 248.5,61.5 C 234.776,65.7421 221.109,70.4087 207.5,75.5C 208.574,73.716 210.24,72.5494 212.5,72C 224.294,67.5542 236.294,64.0542 248.5,61.5 Z"/></g>
<g><path style="opacity:1" fill="#4e4795" d="M 256.5,94.5 C 245.5,93.1667 234.5,93.1667 223.5,94.5C 223.649,95.552 223.483,96.552 223,97.5C 219.968,97.2258 216.968,96.8924 214,96.5C 208.656,98.3824 203.156,99.3824 197.5,99.5C 216.745,92.394 236.412,90.7273 256.5,94.5 Z"/></g>
<g><path style="opacity:1" fill="#443d9c" d="M 256.5,94.5 C 268.98,96.6525 278.146,103.319 284,114.5C 285.587,120.606 284.087,125.772 279.5,130C 271.819,134.842 263.819,139.175 255.5,143C 195.465,171.674 135.465,200.34 75.5,229C 74.2068,229.49 72.8734,229.657 71.5,229.5C 70.7437,218.601 71.9103,207.934 75,197.5C 84.8707,174.275 99.704,154.775 119.5,139C 142.855,120.822 168.855,107.655 197.5,99.5C 203.156,99.3824 208.656,98.3824 214,96.5C 216.968,96.8924 219.968,97.2258 223,97.5C 223.483,96.552 223.649,95.552 223.5,94.5C 234.5,93.1667 245.5,93.1667 256.5,94.5 Z"/></g>
<g><path style="opacity:1" fill="#4f4898" d="M 322.5,238.5 C 311.988,245.259 300.988,251.259 289.5,256.5C 293.375,253.212 297.709,250.378 302.5,248C 301.833,247.333 301.167,246.667 300.5,246C 302.179,245.605 303.845,245.772 305.5,246.5C 308.043,244.797 310.71,243.463 313.5,242.5C 313.089,239.724 313.922,239.057 316,240.5C 317.921,238.997 320.088,238.331 322.5,238.5 Z"/></g>
<g><path style="opacity:1" fill="#574f98" d="M 106.5,276.5 C 114.278,279.313 121.945,282.313 129.5,285.5C 121.042,284.242 113.375,281.242 106.5,276.5 Z"/></g>
<g><path style="opacity:1" fill="#4e4795" d="M 244.5,274.5 C 208.542,288.788 171.542,292.788 133.5,286.5C 149.806,287.891 166.139,288.391 182.5,288C 195.077,285.668 207.744,283.335 220.5,281C 220.833,280.667 221.167,280.333 221.5,280C 219.754,279.529 218.087,278.862 216.5,278C 221.144,278.291 225.811,278.291 230.5,278C 235.108,276.518 239.775,275.351 244.5,274.5 Z"/></g>
<g><path style="opacity:1" fill="#4e4698" d="M 57.5,16.5 C 56.8512,42.8108 56.5178,69.1442 56.5,95.5C 56.5002,120.842 57.1669,145.842 58.5,170.5C 52.8755,177.295 47.0421,183.962 41,190.5C 26.6488,208.194 15.6488,227.86 8,249.5C 0.0673344,272.977 3.40067,294.643 18,314.5C 32.3451,328.922 49.5118,337.922 69.5,341.5C 63.159,341.04 56.9924,339.707 51,337.5C 50.5,337.667 50,337.833 49.5,338C 51.4308,338.902 53.0975,340.069 54.5,341.5C 24.4201,333.092 6.08677,313.759 -0.5,283.5C -0.5,277.5 -0.5,271.5 -0.5,265.5C 5.05081,238.397 16.5508,214.063 34,192.5C 40.6274,184.204 47.6274,176.204 55,168.5C 55.3333,118.833 55.6667,69.1667 56,19.5C 56.2321,18.2625 56.7321,17.2625 57.5,16.5 Z"/></g>
<g><path style="opacity:1" fill="#534b94" d="M 155.5,339.5 C 146.51,342.329 137.177,343.662 127.5,343.5C 136.661,341.906 145.994,340.572 155.5,339.5 Z"/></g>
<g><path style="opacity:1" fill="#49438e" d="M 54.5,341.5 C 56.3241,361.142 57.1574,381.142 57,401.5C 59.0634,404.957 60.5634,408.624 61.5,412.5C 58.9193,409.68 57.0859,406.346 56,402.5C 55.8215,382.094 55.3215,361.76 54.5,341.5 Z"/></g>
<g><path style="opacity:1" fill="#574f96" d="M 72.5,341.5 C 88.7477,344.208 105.081,344.875 121.5,343.5C 115.733,344.953 109.733,345.62 103.5,345.5C 95.4858,345.23 87.4858,344.73 79.5,344C 76.6385,344.03 74.3052,343.197 72.5,341.5 Z"/></g>
</svg>
